<svg
                    xmlns="http://www.w3.org/2000/svg"
                    fill="none"
                    viewBox="0 0 70 41"
                    class="Footer__Logo-sc-10ye0cu-5 ffyGBT"
                >
                    <path
                        fill="#F4F4FB"
                        fill-rule="evenodd"
                        d="m24.218 3.52.6-3.057.598 3.038 2.686 13.872h1.931l3.828-5.327 3.46 5.032 2.066-1.77 1.893 2.065h1.713a.61.61 0 0 1 0 1.219h-2.25L39.286 17l-2.2 1.886-3.246-4.72-3.18 4.426h-3.554L24.87 6.952l-2.085 11.64h-4.632l-2.31-3.125-2.58 3.125h-6.84a.61.61 0 0 1 0-1.22h6.265l3.209-3.884 2.871 3.885h2.988L24.218 3.52Zm21.526 18.878h3.045V35.81h-3.045V22.398Zm-.411-4.251c0-1.07.878-1.975 1.947-1.975 1.097 0 1.975.905 1.975 1.975 0 1.042-.878 1.947-1.975 1.947-1.07 0-1.947-.905-1.947-1.947Zm9.061 17.663v-19.2H51.35v19.2h3.044Zm15.407-6.692c0-3.977-3.044-6.994-6.966-6.994s-6.94 3.017-6.94 6.994c0 3.95 3.017 6.966 6.94 6.966 3.922 0 6.966-3.017 6.966-6.966Zm-6.966 4.032c-2.25 0-3.977-1.756-3.977-4.032 0-2.304 1.728-4.087 3.977-4.087 2.221 0 4.004 1.783 4.004 4.087 0 2.276-1.783 4.032-4.004 4.032Zm-29.99-4.032c0-2.332 1.756-4.087 4.087-4.087 2.276 0 4.06 1.81 4.06 4.087a4.033 4.033 0 0 1-4.06 4.059c-2.331 0-4.087-1.755-4.087-4.06Zm-3.072-6.72V40.5h3.045v-7.104c.96 1.7 2.605 2.688 4.772 2.688 3.593 0 6.418-3.1 6.418-6.966 0-3.868-2.825-6.994-6.418-6.994-2.167 0-3.812.987-4.772 2.688v-2.414h-3.045Zm-2.38 5.211v8.2h-3.1v-7.514c0-2.002-1.096-3.237-2.907-3.237-1.508 0-2.99.96-2.99 3.237v7.515h-3.071v-7.515c0-2.03-1.125-3.237-2.935-3.237-1.371 0-2.743.796-2.962 2.716v8.036H6.356V22.398h3.072v1.865c.987-1.618 2.66-2.14 4.06-2.14 1.947 0 3.318.741 4.14 2.36.769-1.454 2.442-2.36 4.28-2.36 3.236 0 5.485 2.113 5.485 5.486ZM3.956 22.398H.91V35.81h3.045V22.398Zm-1.509-6.226c-1.07 0-1.947.905-1.947 1.975 0 1.042.878 1.947 1.947 1.947 1.097 0 1.975-.905 1.975-1.947 0-1.07-.878-1.975-1.975-1.975Z"
                        clip-rule="evenodd"
                        style="fill: color(display-p3 0.9569 0.9569 0.9843); fill-opacity: 1"
                    ></path>
                </svg>