<svg width="134" height="46" viewBox="0 0 134 46" fill="none" xmlns="http://www.w3.org/2000/svg">
<path d="M36.1133 22.2777C36.1133 16.4801 40.6576 11.8828 46.3016 11.8828C49.3969 11.8828 51.8437 13.2329 53.4423 15.3818V13.4575C53.4423 12.588 54.1471 11.8828 55.016 11.8828C55.8849 11.8828 56.5897 12.588 56.5897 13.4575V31.048C56.5897 31.9175 55.8849 32.6227 55.016 32.6227C54.1471 32.6227 53.4423 31.9175 53.4423 31.048V29.1238C51.8437 31.2727 49.3969 32.6227 46.3016 32.6227C40.6576 32.6227 36.1133 28.0254 36.1133 22.2777ZM53.4423 22.3277C53.4423 17.98 50.0954 15.0323 46.3016 15.0323C42.5077 15.0323 39.2606 18.1797 39.2606 22.2777C39.2606 26.3758 42.4059 29.4733 46.3016 29.4733C50.1973 29.4733 53.4423 26.5256 53.4423 22.3277Z" fill="#ffffff"/>
<path d="M81.5439 31.0487V1.71536C81.5439 0.845824 82.2487 0.140625 83.1176 0.140625C83.9866 0.140625 84.6913 0.845824 84.6913 1.71536V31.0487C84.6913 31.9183 83.9866 32.6235 83.1176 32.6235C82.2487 32.6235 81.5439 31.9183 81.5439 31.0487Z" fill="#ffffff"/>
<path d="M90.3789 22.3776C90.3789 16.58 94.7236 11.8828 100.218 11.8828C105.024 11.8828 108.951 15.4795 109.857 20.262C110.067 21.3645 109.186 22.3776 108.066 22.3776H93.3766C93.3766 26.3259 96.4719 29.4733 100.218 29.4733C102.53 29.4733 104.606 28.2834 105.843 26.6109C106.132 26.2198 106.577 25.9743 107.064 25.9743C108.24 25.9743 108.916 27.2953 108.248 28.2667C106.477 30.84 103.623 32.6207 100.22 32.6207C94.7278 32.6207 90.381 27.9734 90.381 22.3755L90.3789 22.3776ZM106.558 19.4798C105.461 16.8317 103.112 15.0323 100.216 15.0323C97.3201 15.0323 94.9232 16.8816 93.8734 19.4798H106.558Z" fill="#ffffff"/>
<path d="M115.152 37.5362C115.774 37.5362 116.354 37.8857 116.613 38.4515C117.736 40.9 120.137 42.533 122.858 42.533C126.604 42.533 129.899 39.3856 129.899 35.3374V30.3241C128.251 31.9737 126.754 32.6227 124.507 32.6227C119.513 32.6227 115.668 28.8742 115.668 23.8275V13.4575C115.668 12.588 116.372 11.8828 117.241 11.8828C118.11 11.8828 118.815 12.588 118.815 13.4575V23.8275C118.815 26.925 121.262 29.4254 124.507 29.4254C127.452 29.4254 129.899 26.9271 129.899 24.1291V13.4596C129.899 12.5901 130.604 11.8849 131.473 11.8849C132.342 11.8849 133.047 12.5901 133.047 13.4596V35.3894C133.047 41.1371 128.353 45.6845 122.86 45.6845C118.9 45.6845 115.36 43.2839 113.716 39.7579C113.233 38.7241 114.013 37.5383 115.154 37.5383L115.152 37.5362Z" fill="#ffffff"/>
<path d="M27.324 13.2018C25.9354 12.143 24.1996 11.5002 22.3203 11.469C22.2559 11.469 22.1935 11.4648 22.129 11.4648H22.1062C22.0376 11.4648 21.969 11.4648 21.9004 11.469C20.1812 11.5044 18.3809 12.0036 17.1149 12.8981C16.3686 13.3995 15.7034 14.0319 15.1463 14.7745C14.61 14.0631 13.9801 13.4577 13.2754 12.9647C13.2546 12.9501 13.2338 12.9335 13.2088 12.921C11.9366 12.0119 10.207 11.5023 8.4712 11.469C8.39636 11.469 8.31944 11.4648 8.24253 11.4648H8.21342C8.15937 11.4648 8.10532 11.4648 8.05127 11.469C6.17202 11.5023 4.4362 12.143 3.04755 13.1998C1.08722 14.6934 0 17.0232 0 19.6568V31.0981C0 31.9884 0.721351 32.7103 1.61109 32.7103C2.50082 32.7103 3.22217 31.9884 3.22217 31.0981V19.8087C3.22217 17.0794 5.38207 14.8348 8.12195 14.6954C8.20095 14.6913 8.28202 14.6892 8.3631 14.6892H8.38804C11.2298 14.7183 13.504 17.0107 13.504 19.8087V31.071C13.504 31.9759 14.2358 32.7082 15.1401 32.7082C16.0443 32.7082 16.7761 31.9759 16.7761 31.071V19.8087C16.7761 17.0066 19.0503 14.7162 21.8921 14.6892H21.942C22.0147 14.6892 22.0875 14.6892 22.1582 14.6954C24.898 14.8348 27.0579 17.0794 27.0579 19.8087V31.0981C27.0579 31.9884 27.7793 32.7103 28.669 32.7103C29.5588 32.7103 30.2801 31.9884 30.2801 31.0981V19.6568C30.2801 17.0232 29.274 14.6954 27.3157 13.2018H27.324Z" fill="#ffffff"/>
<path d="M48.8691 45.6794V38.3174H49.9855V39.3118C50.2869 38.6544 50.9791 38.1406 51.9354 38.1406C52.8917 38.1406 53.5839 38.6191 54.0974 39.3659C54.6462 38.6212 55.4632 38.1406 56.5254 38.1406C58.0139 38.1406 59.3443 39.0996 59.3443 40.9427V45.6794H58.228V41.1029C58.228 39.8423 57.4297 39.2577 56.4548 39.2577C55.4798 39.2577 54.6649 39.8776 54.6649 41.0842V45.6794H53.5486V41.0842C53.5486 39.8776 52.715 39.2577 51.7587 39.2577C50.7131 39.2577 49.9855 40.0024 49.9855 41.2443V45.6794H48.8691Z" fill="#ffffff"/>
<path d="M67.7158 43.447H68.8674C68.354 44.8138 67.0942 45.8601 65.5164 45.8601C63.5124 45.8601 61.9346 44.2999 61.9346 42.0824C61.9346 39.8649 63.5124 38.1445 65.4623 38.1445C67.6243 38.1445 69.0961 40.0063 69.0961 42.2072H63.0156C63.0696 43.8028 64.2213 44.7077 65.5143 44.7077C66.508 44.7077 67.2875 44.1751 67.7116 43.447H67.7158ZM63.213 41.1942H67.8218C67.5037 40.1291 66.6514 39.297 65.5164 39.297C64.3813 39.297 63.5311 40.0604 63.211 41.1942H63.213Z" fill="#ffffff"/>
<path d="M78.8122 35.1094V45.6811H77.6959V44.5994C77.4652 45.0425 76.4902 45.8579 75.0724 45.8579C73.0518 45.8579 71.4033 44.279 71.4033 42.0095C71.4033 39.74 73.0518 38.1424 75.2138 38.1424C76.933 38.1424 77.5712 39.0119 77.6959 39.1887V35.1094H78.8122ZM77.6959 42.205V41.7973C77.6959 40.3599 76.4902 39.2969 75.1078 39.2969C73.7254 39.2969 72.555 40.3432 72.555 42.0116C72.555 43.6799 73.69 44.7076 75.1078 44.7076C76.5255 44.7076 77.6959 43.5551 77.6959 42.2071V42.205Z" fill="#ffffff"/>
<path d="M83.7598 45.6811H82.6434V39.4363H81.9346V38.3192H83.7598V45.6811ZM82.2713 35.9602C82.2713 35.4984 82.6434 35.1094 83.1216 35.1094C83.5997 35.1094 83.9718 35.5005 83.9718 35.9602C83.9718 36.4199 83.581 36.811 83.1216 36.811C82.6622 36.811 82.2713 36.4386 82.2713 35.9602Z" fill="#ffffff"/>
<path d="M94.0773 43.11C93.5284 44.9719 92.0213 45.8601 90.4955 45.8601C88.4915 45.8601 86.8076 44.2812 86.8076 42.0117C86.8076 39.7421 88.5268 38.1445 90.4955 38.1445C92.1086 38.1445 93.5451 39.1202 94.0773 40.9112H92.9069C92.4454 39.7588 91.5245 39.297 90.4955 39.297C89.113 39.297 87.9614 40.4682 87.9614 42.0117C87.9614 43.6426 89.113 44.7077 90.4955 44.7077C91.5598 44.7077 92.4807 44.2292 92.9069 43.11H94.0773Z" fill="#ffffff"/>
<path d="M103.794 38.2319V45.6833H102.677V44.6016C102.447 45.0447 101.472 45.8601 100.054 45.8601C98.0333 45.8601 96.3848 44.3519 96.3848 42.0117C96.3848 39.7942 97.8732 38.1445 100.089 38.1445C101.048 38.1445 102.11 38.4462 102.677 39.2263V38.234H103.794V38.2319ZM102.677 42.2051V41.7974C102.677 40.36 101.613 39.297 100.089 39.297C98.5655 39.297 97.5364 40.4328 97.5364 42.0117C97.5364 43.7508 98.7422 44.7077 100.089 44.7077C101.542 44.7077 102.677 43.5552 102.677 42.2072V42.2051Z" fill="#ffffff"/>
<path d="M108.367 45.6811H107.251V35.1094H108.367V45.6811Z" fill="#ffffff"/>
<path d="M63.3564 31.0489V13.3753C63.3564 12.5057 64.0612 11.8005 64.9301 11.8005C65.7991 11.8005 66.5038 12.5057 66.5038 13.3753V15.3993C67.5536 13.6498 69.8507 11.1016 73.5946 11.1016H74.4179C75.2868 11.1016 75.9915 11.8068 75.9915 12.6763C75.9915 13.5458 75.2868 14.251 74.4179 14.251H73.5946C69.7488 14.251 66.5038 17.6501 66.5038 21.3966V31.0489C66.5038 31.9185 65.7991 32.6237 64.9301 32.6237C64.0612 32.6237 63.3564 31.9185 63.3564 31.0489Z" fill="#ffffff"/>
</svg>
